<?xml version="1.0" encoding="utf-8"?>
<!-- Generator: Adobe Illustrator 26.3.1, SVG Export Plug-In . SVG Version: 6.00 Build 0)  -->
<svg version="1.1" id="Capa_1" xmlns="http://www.w3.org/2000/svg" xmlns:xlink="http://www.w3.org/1999/xlink" x="0px" y="0px"
	 viewBox="0 0 16.2 19.8" style="enable-background:new 0 0 16.2 19.8;" xml:space="preserve">
<style type="text/css">
	.st0{fill:#F6F2E1;}
	.st1{fill:none;stroke:#F39200;stroke-width:0.8504;stroke-miterlimit:10;}
	.st2{display:none;fill:#F39200;}
	.st3{display:none;}
	.st4{display:inline;fill:#F59D07;}
	.st5{fill:#F39200;}
</style>
<path class="st0" d="M15.7,8.9c0,4.2-7.6,10.6-7.6,10.6S0.5,13.1,0.5,8.9c0-4.2,3.4-7.6,7.6-7.6C12.3,1.3,15.7,4.7,15.7,8.9"/>
<path class="st1" d="M15.7,8.9c0,4.2-7.6,10.6-7.6,10.6S0.5,13.1,0.5,8.9c0-4.2,3.4-7.6,7.6-7.6C12.3,1.3,15.7,4.7,15.7,8.9z"/>
<path class="st2" d="M8.8,8.2L8.8,8.2c0,0.1-0.1,0.1-0.1,0.1h-1c-0.1,0-0.1-0.1-0.1-0.1v-1c0-0.4,0.3-0.7,0.6-0.7
	c0.4,0,0.6,0.3,0.6,0.7V8.2z M13.1,9.2L8.4,4.5V4.2h0.2C8.9,4.2,9,4.1,9,3.9c0-0.2-0.2-0.3-0.3-0.3H8.4V3.3C8.4,3.1,8.3,3,8.1,3
	C7.9,3,7.8,3.1,7.8,3.3v0.2H7.5c-0.2,0-0.3,0.1-0.3,0.3c0,0.2,0.2,0.3,0.3,0.3h0.2v0.1c0,0.1-0.6,0.8-1.4,1.6L3.1,9.2
	C3,9.3,2.9,9.5,3,9.7C3.1,9.9,3.2,10,3.4,10h0.4l0,3c0,0.2,0.1,0.3,0.3,0.3h2.7v-1.6c0-0.7,0.6-1.3,1.3-1.3s1.3,0.6,1.3,1.3v1.6h2.7
	c0.1,0,0.2,0,0.2-0.1c0.1-0.1,0.1-0.1,0.1-0.2l0-3h0.4c0.2,0,0.4-0.1,0.4-0.3C13.3,9.5,13.2,9.3,13.1,9.2"/>
<path class="st2" d="M12.4,5.6c0,0-0.1-0.1-0.2-0.1c-0.3,0-6.7,0.8-8.2,3.9c-0.5,1-0.4,2.1,0.3,3.4l-0.3,0.3
	c-0.1,0.1-0.2,0.3-0.2,0.4c0,0.2,0.1,0.3,0.2,0.4c0.1,0.1,0.3,0.2,0.4,0.2c0.2,0,0.3-0.1,0.4-0.2l0.3-0.3c0.7,0.4,1.4,0.6,2.1,0.6
	c1.8,0,3.2-1.5,4.2-4.3c0.7-2.1,1-4.2,1-4.2C12.4,5.7,12.4,5.7,12.4,5.6 M5.1,13.2l-0.3,0.3l-0.2,0.2c0,0,0,0,0,0
	c-0.1,0.1-0.2,0.1-0.3,0c0,0,0,0,0,0c-0.1-0.1-0.1-0.2,0-0.3l0.2-0.2l0.3-0.3l0.8-0.8v-1.9C5.7,10,5.8,10,5.9,10
	C6,10,6.1,10,6.1,10.2v1.5L6.7,11l0.8-0.8V9c0-0.1,0.1-0.2,0.2-0.2S7.9,8.8,7.9,9v0.9l1.2-1.2V8.2C9.1,8.1,9.1,8,9.3,8
	c0.1,0,0.2,0.1,0.2,0.2v0.4h0.4c0.1,0,0.2,0.1,0.2,0.2C10.1,8.9,10,9,9.9,9H9.3l-1.2,1.2h0.9c0.1,0,0.2,0.1,0.2,0.2
	c0,0.1-0.1,0.2-0.2,0.2H7.7L7,11.3l-0.6,0.6h1.5c0.1,0,0.2,0.1,0.2,0.2c0,0.1-0.1,0.2-0.2,0.2H6L5.1,13.2z"/>
<path class="st2" d="M6.5,2.8C6.8,2.9,7.1,3,7.3,3.2c0.1,0.2,0.2,0.4,0.4,0.6c0.4,0,0.9,0,1.3-0.1c0.7,0,1.3-0.1,2-0.1
	c0.2,0,0.3,0.1,0.4,0.2C11.7,4.1,12,4.5,12.1,5c0.1,0.2,0,0.3-0.2,0.4c-0.5,0.1-1.1-0.2-1.3-0.6c-0.1-0.2-0.1-0.4-0.1-0.6
	c0-0.1,0-0.1,0-0.2c-1,0-1.9,0-2.9,0c0,0.5-0.2,0.8-0.6,1.1c0.2,0,0.3,0.1,0.5,0.1c0.5,0.2,0.8,0.6,0.9,1c0.2,0.7,0.3,1.4,0.5,2
	c0.1,0.4,0.2,0.9,0.3,1.3c0.1,0.2,0.1,0.5,0,0.7c0,0,0,0.1,0,0.2c0.4,1.5,1,2.8,1.8,4.1c0.1,0.1,0.2,0.3,0.3,0.4
	c0.2,0.4,0,0.8-0.4,1c-0.5,0.3-1,0.1-1.4-0.3c-0.7-1-1.3-2-1.7-3.2c0,0,0-0.1-0.1-0.1c-0.1,0.4-0.2,0.9-0.2,1.3
	c-0.1,0.6-0.2,1.3-0.3,1.9c-0.1,0.6-0.6,0.9-1.2,0.9c-0.5-0.1-0.8-0.4-0.7-1c0.2-1.7,0.5-3.4,0.9-5c0-0.1,0-0.2,0-0.2
	C6.3,9.4,6.1,8.6,5.9,7.9C5.9,7.6,5.8,7.4,5.7,7.1C5.7,7,5.6,7,5.5,7C5.2,7,4.9,7,4.6,6.9c-1-0.2-1.6-1-1.6-2c0-0.2,0-0.4,0-0.6
	c0-0.4,0.3-0.6,0.6-0.6c0.2,0,0.4,0.1,0.6,0.2c0.1,0.1,0.1,0.1,0.2,0.1c0.2,0,0.4,0,0.7,0c0,0,0.1,0,0.1-0.1c0.1-0.5,0.5-0.9,1-1
	c0,0,0,0,0,0C6.3,2.8,6.4,2.8,6.5,2.8z M5.1,4.1c-0.3,0-0.5,0-0.8,0c0,0.1,0,0.2,0,0.3c0,0.2,0,0.4,0,0.6c0,0.3,0.2,0.4,0.4,0.5
	c0.3,0.1,0.7,0.1,1,0.1c0.2,0,0.4-0.2,0.6-0.3C5.6,5.2,5.2,4.8,5.1,4.1z"/>
<g class="st3">
	<path class="st4" d="M10.1,9.1c0,0.1-0.1,0.2-0.2,0.2c-0.1,0-0.2-0.1-0.2-0.2c0-0.3-0.4-0.5-1.1-0.6v3.9c0,1.3,1.1,2.4,2.4,2.4
		c1.3,0,2.4-1.1,2.4-2.4c0-0.5-0.2-1-0.5-1.4l-1.3-3.1c0,0,0,0,0-0.1l-0.6-0.6l-0.6-1.7c0,0,0-0.1,0-0.1C9.8,5,9,5,8.6,5.4
		c0,0-0.1,0.1-0.1,0.2V8C9.4,8.1,10.1,8.5,10.1,9.1 M10.9,14.3c-1.1,0-2-0.9-2-2c0-1.1,0.9-2,2-2c1.1,0,2,0.9,2,2
		C12.9,13.4,12,14.3,10.9,14.3"/>
	<path class="st4" d="M2.8,12.3c0,1.3,1.1,2.4,2.4,2.4c1.3,0,2.4-1.1,2.4-2.4V8.4C7,8.5,6.6,8.8,6.6,9.1c0,0.1-0.1,0.2-0.2,0.2
		c-0.1,0-0.2-0.1-0.2-0.2c0-0.5,0.6-1,1.5-1.1V5.5c0-0.1,0-0.1-0.1-0.2C7.2,5,6.4,5,6,5.4c0,0,0,0-0.1,0.1L5.3,7.2L4.6,7.8
		c0,0,0,0,0,0.1l-1.3,3.1C3,11.3,2.8,11.8,2.8,12.3 M5.2,14.3c-1.1,0-2-0.9-2-2c0-1.1,0.9-2,2-2c1.1,0,2,0.9,2,2
		C7.2,13.4,6.3,14.3,5.2,14.3"/>
	<path class="st4" d="M5.2,11.3c0.1,0,0.2-0.1,0.2-0.2c0-0.1-0.1-0.2-0.2-0.2c-0.8,0-1.5,0.7-1.5,1.5c0,0.1,0.1,0.2,0.2,0.2
		c0.1,0,0.2-0.1,0.2-0.2C4.1,11.7,4.6,11.3,5.2,11.3"/>
	<path class="st4" d="M10.9,11.3c0.1,0,0.2-0.1,0.2-0.2c0-0.1-0.1-0.2-0.2-0.2c-0.8,0-1.5,0.7-1.5,1.5c0,0.1,0.1,0.2,0.2,0.2
		c0.1,0,0.2-0.1,0.2-0.2C9.9,11.7,10.3,11.3,10.9,11.3"/>
</g>
<g>
	<path class="st5" d="M9.1,5.5c0,0.5-0.4,0.9-1,0.9c-0.6,0-1-0.4-0.9-0.9c0-0.5,0.4-0.9,1-0.9S9,4.9,9.1,5.5z M7.2,13V7.1H9V13H7.2z
		"/>
</g>
</svg>
