<?xml version="1.0" encoding="utf-8"?>
<!-- Generator: Adobe Illustrator 26.3.1, SVG Export Plug-In . SVG Version: 6.00 Build 0)  -->
<svg version="1.1" id="Capa_1" xmlns="http://www.w3.org/2000/svg" xmlns:xlink="http://www.w3.org/1999/xlink" x="0px" y="0px"
	 viewBox="0 0 16.2 19.8" style="enable-background:new 0 0 16.2 19.8;" xml:space="preserve">
<style type="text/css">
	.st0{fill:#F6F2E1;}
	.st1{fill:none;stroke:#F39200;stroke-width:0.8504;stroke-miterlimit:10;}
	.st2{display:none;fill:#F39200;}
	.st3{fill:#F39200;}
</style>
<path class="st0" d="M15.7,8.9c0,4.2-7.6,10.6-7.6,10.6S0.5,13.1,0.5,8.9c0-4.2,3.4-7.6,7.6-7.6C12.3,1.3,15.7,4.7,15.7,8.9"/>
<path class="st1" d="M15.7,8.9c0,4.2-7.6,10.6-7.6,10.6S0.5,13.1,0.5,8.9c0-4.2,3.4-7.6,7.6-7.6C12.3,1.3,15.7,4.7,15.7,8.9z"/>
<path class="st2" d="M8.8,8.2L8.8,8.2c0,0.1-0.1,0.1-0.1,0.1h-1c-0.1,0-0.1-0.1-0.1-0.1v-1c0-0.4,0.3-0.7,0.6-0.7
	c0.4,0,0.6,0.3,0.6,0.7V8.2z M13.1,9.2L8.4,4.5V4.2h0.2C8.9,4.2,9,4.1,9,3.9c0-0.2-0.2-0.3-0.3-0.3H8.4V3.3C8.4,3.1,8.3,3,8.1,3
	C7.9,3,7.8,3.1,7.8,3.3v0.2H7.5c-0.2,0-0.3,0.1-0.3,0.3c0,0.2,0.2,0.3,0.3,0.3h0.2v0.1c0,0.1-0.6,0.8-1.4,1.6L3.1,9.2
	C3,9.3,2.9,9.5,3,9.7C3.1,9.9,3.2,10,3.4,10h0.4l0,3c0,0.2,0.1,0.3,0.3,0.3h2.7v-1.6c0-0.7,0.6-1.3,1.3-1.3s1.3,0.6,1.3,1.3v1.6h2.7
	c0.1,0,0.2,0,0.2-0.1c0.1-0.1,0.1-0.1,0.1-0.2l0-3h0.4c0.2,0,0.4-0.1,0.4-0.3C13.3,9.5,13.2,9.3,13.1,9.2"/>
<path class="st3" d="M12.4,5.6c0,0-0.1-0.1-0.2-0.1c-0.3,0-6.7,0.8-8.2,3.9c-0.5,1-0.4,2.1,0.3,3.4l-0.3,0.3
	c-0.1,0.1-0.2,0.3-0.2,0.4c0,0.2,0.1,0.3,0.2,0.4c0.1,0.1,0.3,0.2,0.4,0.2c0.2,0,0.3-0.1,0.4-0.2l0.3-0.3c0.7,0.4,1.4,0.6,2.1,0.6
	c1.8,0,3.2-1.5,4.2-4.3c0.7-2.1,1-4.2,1-4.2C12.4,5.7,12.4,5.7,12.4,5.6 M5.1,13.2l-0.3,0.3l-0.2,0.2c0,0,0,0,0,0
	c-0.1,0.1-0.2,0.1-0.3,0c0,0,0,0,0,0c-0.1-0.1-0.1-0.2,0-0.3l0.2-0.2l0.3-0.3l0.8-0.8v-1.9C5.7,10,5.8,10,5.9,10
	C6,10,6.1,10,6.1,10.2v1.5L6.7,11l0.8-0.8V9c0-0.1,0.1-0.2,0.2-0.2S7.9,8.8,7.9,9v0.9l1.2-1.2V8.2C9.1,8.1,9.1,8,9.3,8
	c0.1,0,0.2,0.1,0.2,0.2v0.4h0.4c0.1,0,0.2,0.1,0.2,0.2C10.1,8.9,10,9,9.9,9H9.3l-1.2,1.2h0.9c0.1,0,0.2,0.1,0.2,0.2
	c0,0.1-0.1,0.2-0.2,0.2H7.7L7,11.3l-0.6,0.6h1.5c0.1,0,0.2,0.1,0.2,0.2c0,0.1-0.1,0.2-0.2,0.2H6L5.1,13.2z"/>
</svg>
