<?xml version="1.0" encoding="utf-8"?>
<!-- Generator: Adobe Illustrator 26.3.1, SVG Export Plug-In . SVG Version: 6.00 Build 0)  -->
<svg version="1.1" xmlns="http://www.w3.org/2000/svg" xmlns:xlink="http://www.w3.org/1999/xlink" x="0px" y="0px"
	 viewBox="0 0 16.2 19.8" style="enable-background:new 0 0 16.2 19.8;" xml:space="preserve">
<style type="text/css">
	.st0{fill:#F6F2E1;}
	.st1{fill:none;stroke:#F39200;stroke-width:0.8504;stroke-miterlimit:10;}
	.st2{fill:#F59D07;}
	.st3{fill:#F39200;}
</style>
<g id="Capa_1">
	<path class="st0" d="M15.7,8.4c0,4.2-7.6,10.6-7.6,10.6S0.5,12.6,0.5,8.4c0-4.2,3.4-7.6,7.6-7.6C12.3,0.8,15.7,4.2,15.7,8.4"/>
	<path class="st1" d="M15.7,8.4c0,4.2-7.6,10.6-7.6,10.6S0.5,12.6,0.5,8.4c0-4.2,3.4-7.6,7.6-7.6C12.3,0.8,15.7,4.2,15.7,8.4z"/>
	<g>
		<rect x="5" y="10" class="st2" width="0.2" height="1"/>
		<rect x="5.6" y="10" class="st2" width="0.2" height="1"/>
		<rect x="6.2" y="10" class="st2" width="0.2" height="1"/>
		<rect x="7.5" y="10" class="st2" width="0.2" height="1"/>
		<rect x="8.1" y="10" class="st2" width="0.2" height="1"/>
		<rect x="8.7" y="10" class="st2" width="0.2" height="1"/>
		<rect x="9.3" y="10" class="st2" width="0.2" height="1"/>
		<rect x="9.9" y="10" class="st2" width="0.2" height="1"/>
		<rect x="10.5" y="10" class="st2" width="0.2" height="1"/>
		<rect x="11.1" y="10" class="st2" width="0.2" height="1"/>
		<rect x="6.9" y="10" class="st2" width="0.2" height="1"/>
		<path class="st3" d="M4.9,10.1h2.4h0.3h1.2h0.2h2.4v1H8.8H7.6H4.9V10.1z M8.8,9.9H7.6v-1h1.2V9.9z M4.3,13.6
			c0,0.1,0.1,0.2,0.2,0.2h0.7v-1.4c0-0.4,0.4-0.8,0.8-0.8c0.4,0,0.8,0.4,0.8,0.8v1.4h0.5v-1.4c0-0.4,0.4-0.8,0.8-0.8
			s0.8,0.4,0.8,0.8v1.4h0.4v-1.4c0-0.4,0.4-0.8,0.8-0.8c0.4,0,0.8,0.4,0.8,0.8v1.4h0.7c0.1,0,0.2-0.1,0.2-0.2v-5H4.3V13.6z"/>
		<path class="st3" d="M13.3,8.2l-1.6-2.1c0,0,0,0-0.1,0H4.8c0,0-0.1,0-0.1,0L2.9,8.2c0,0,0,0.1,0,0.1c0,0,0,0.1,0.1,0.1h1.3h7.6
			h1.3c0,0,0.1,0,0.1-0.1C13.3,8.3,13.3,8.3,13.3,8.2"/>
	</g>
</g>
<g id="Capa_2">
</g>
</svg>
